<svg width="64" height="65" viewBox="0 0 64 65" fill="none" xmlns="http://www.w3.org/2000/svg">
<g id="check_circle">
<rect y="0.5" width="64" height="64" rx="32" fill="#CCCCCC"/>
<path id="Vector" d="M32.0002 5.83325C17.2802 5.83325 5.3335 17.7799 5.3335 32.4999C5.3335 47.2199 17.2802 59.1666 32.0002 59.1666C46.7202 59.1666 58.6668 47.2199 58.6668 32.4999C58.6668 17.7799 46.7202 5.83325 32.0002 5.83325ZM32.0002 53.8332C20.2402 53.8332 10.6668 44.2599 10.6668 32.4999C10.6668 20.7399 20.2402 11.1666 32.0002 11.1666C43.7602 11.1666 53.3335 20.7399 53.3335 32.4999C53.3335 44.2599 43.7602 53.8332 32.0002 53.8332ZM44.2402 20.7133L26.6668 38.2866L19.7602 31.4066L16.0002 35.1666L26.6668 45.8332L48.0002 24.4999L44.2402 20.7133Z" fill="#828282"/>
</g>
</svg>
