<svg width="64" height="65" viewBox="0 0 64 65" fill="none" xmlns="http://www.w3.org/2000/svg">
<g id="check_circle">
<rect y="0.5" width="64" height="64" rx="32" fill="#DCDCDC"/>
<path id="Vector" d="M31.9997 5.83325C17.2797 5.83325 5.33301 17.7799 5.33301 32.4999C5.33301 47.2199 17.2797 59.1666 31.9997 59.1666C46.7197 59.1666 58.6663 47.2199 58.6663 32.4999C58.6663 17.7799 46.7197 5.83325 31.9997 5.83325ZM31.9997 53.8332C20.2397 53.8332 10.6663 44.2599 10.6663 32.4999C10.6663 20.7399 20.2397 11.1666 31.9997 11.1666C43.7597 11.1666 53.333 20.7399 53.333 32.4999C53.333 44.2599 43.7597 53.8332 31.9997 53.8332ZM44.2397 20.7133L26.6663 38.2866L19.7597 31.4066L15.9997 35.1666L26.6663 45.8332L47.9997 24.4999L44.2397 20.7133Z" fill="#08BC14"/>
</g>
</svg>
