<svg xmlns="http://www.w3.org/2000/svg" width="512" height="512" viewBox="0 0 512 512" version="1.1"><path d="M 342.500 74.674 C 328.568 76.413, 313.715 81.775, 302.965 88.947 C 295.903 93.658, 121.008 267.340, 118.431 272.200 C 117.242 274.444, 117 283.750, 117 327.209 L 117 379.518 96 400.500 C 73.173 423.308, 72.301 424.618, 75.484 431.326 C 77.115 434.762, 81.950 438, 85.451 438 C 88.991 438, 93.206 434.425, 112.491 415.067 L 132.481 395 184.790 395 C 228.250 395, 237.556 394.758, 239.800 393.569 C 243.735 391.482, 419.132 215.386, 422.963 209.675 C 427.946 202.247, 432.790 191.005, 435.190 181.301 C 438.182 169.201, 438.151 150.898, 435.118 139.500 C 427.456 110.706, 406.639 88.107, 379.500 79.120 C 366.682 74.875, 353.542 73.296, 342.500 74.674 M 343 96.968 C 332.042 98.495, 320.939 102.895, 313.250 108.759 L 310 111.237 310 156.619 L 310 202 355.381 202 L 400.763 202 403.241 198.750 C 411.174 188.348, 415.292 175.040, 415.232 160 C 415.161 142.102, 409.608 128.672, 397 115.905 C 388.754 107.554, 380.287 102.320, 370 99.214 C 362.257 96.877, 350.609 95.908, 343 96.968 M 255.750 165.749 L 224 197.512 224 235.004 L 224 272.496 256.012 240.484 L 288.025 208.471 287.762 171.229 L 287.500 133.987 255.750 165.749 M 170.250 251.249 L 139 282.512 139 320.004 L 139 357.496 170.512 325.984 L 202.025 294.471 201.762 257.229 L 201.500 219.987 170.250 251.249 M 271.500 256 L 239.512 288 277.012 288 L 314.512 288 346.500 256 L 378.488 224 340.988 224 L 303.488 224 271.500 256 M 186 341.500 L 154.512 373 192.012 373 L 229.512 373 261 341.500 L 292.488 310 254.988 310 L 217.488 310 186 341.500" stroke="none" fill="#ff5404" fill-rule="evenodd"/><path d="" stroke="none" fill="#fc5404" fill-rule="evenodd"/></svg>