<svg width="72" height="72" viewBox="0 0 72 72" fill="none" xmlns="http://www.w3.org/2000/svg">
<g clip-path="url(#clip0_1567_23066)" id="FourColumn">
<rect x="5.5" y="14" width="28" height="44" stroke="black" stroke-width="4"/>
<line x1="9" y1="20" x2="17" y2="20" stroke="black" stroke-width="4"/>
<line x1="9" y1="27" x2="14" y2="27" stroke="black" stroke-width="4"/>
<line x1="22" y1="20" x2="30" y2="20" stroke="black" stroke-width="4"/>
<line x1="22" y1="27" x2="27" y2="27" stroke="black" stroke-width="4"/>
<g clip-path="url(#clip1_1567_23066)">
<path d="M13 52H29V54H13V52ZM13 56H23V58H13V56Z" fill="black"/>
<path d="M11.6773 53.44V54H9.6023V53.44H10.3023V51.6025C10.3023 51.5558 10.3031 51.5092 10.3048 51.4625C10.3065 51.4142 10.309 51.3658 10.3123 51.3175L9.8973 51.6625C9.86064 51.6908 9.82397 51.7083 9.7873 51.715C9.7523 51.72 9.71897 51.72 9.6873 51.715C9.65564 51.7083 9.6273 51.6975 9.6023 51.6825C9.5773 51.6658 9.55897 51.6492 9.5473 51.6325L9.3023 51.3075L10.4373 50.355H11.0773V53.44H11.6773Z" fill="black"/>
</g>
</g>
<g clip-path="url(#clip2_1567_23066)">
<rect x="38.5" y="14" width="28" height="44" stroke="black" stroke-width="4"/>
<line x1="42" y1="20" x2="50" y2="20" stroke="black" stroke-width="4"/>
<line x1="42" y1="27" x2="47" y2="27" stroke="black" stroke-width="4"/>
<line x1="55" y1="20" x2="63" y2="20" stroke="black" stroke-width="4"/>
<path d="M55 27H60" stroke="black" stroke-width="4"/>
</g>
<defs>
<clipPath id="clip0_1567_23066">
<rect x="3.5" y="12" width="32" height="48" rx="2" fill="white"/>
</clipPath>
<clipPath id="clip1_1567_23066">
<rect width="24" height="13" fill="white" transform="translate(9 43)"/>
</clipPath>
<clipPath id="clip2_1567_23066">
<rect x="36.5" y="12" width="32" height="48" rx="2" fill="white"/>
</clipPath>
</defs>
</svg>
