<svg width="72" height="72" viewBox="0 0 72 72" fill="none" xmlns="http://www.w3.org/2000/svg">
<g clip-path="url(#clip0_1567_23056)" id="BiblePlusNotes">
<rect x="32.5" y="14" width="28" height="44" stroke="black" stroke-width="4"/>
<line x1="36" y1="20" x2="44" y2="20" stroke="black" stroke-width="4"/>
<line x1="36" y1="27" x2="41" y2="27" stroke="black" stroke-width="4"/>
<g clip-path="url(#clip1_1567_23056)">
<path d="M50 20H57V22H50V20ZM50 24H54.375V26H50V24Z" fill="black"/>
<path d="M48.6773 21.44V22H46.6023V21.44H47.3023V19.6025C47.3023 19.5558 47.3031 19.5092 47.3048 19.4625C47.3065 19.4142 47.309 19.3658 47.3123 19.3175L46.8973 19.6625C46.8606 19.6908 46.824 19.7083 46.7873 19.715C46.7523 19.72 46.719 19.72 46.6873 19.715C46.6556 19.7083 46.6273 19.6975 46.6023 19.6825C46.5773 19.6658 46.559 19.6492 46.5473 19.6325L46.3023 19.3075L47.4373 18.355H48.0773V21.44H48.6773Z" fill="black"/>
</g>
<g clip-path="url(#clip2_1567_23056)">
<path d="M50 28H57V30H50V28ZM50 32H54.375V34H50V32Z" fill="black"/>
<path d="M48.4898 29.3C48.5731 29.3 48.639 29.3233 48.6873 29.37C48.7356 29.415 48.7598 29.475 48.7598 29.55V30H46.1998V29.75C46.1998 29.7017 46.2098 29.65 46.2298 29.595C46.2498 29.54 46.2848 29.49 46.3348 29.445L47.3848 28.3875C47.4748 28.2975 47.5531 28.2117 47.6198 28.13C47.6865 28.0483 47.7415 27.9683 47.7848 27.89C47.8281 27.81 47.8606 27.7308 47.8823 27.6525C47.904 27.5725 47.9148 27.4883 47.9148 27.4C47.9148 27.255 47.8798 27.1442 47.8098 27.0675C47.7415 26.9892 47.6365 26.95 47.4948 26.95C47.3798 26.95 47.2823 26.9808 47.2023 27.0425C47.124 27.1025 47.0698 27.1775 47.0398 27.2675C47.0048 27.3592 46.959 27.42 46.9023 27.45C46.8456 27.48 46.7648 27.4867 46.6598 27.47L46.2498 27.3975C46.2765 27.2158 46.3273 27.0575 46.4023 26.9225C46.479 26.7875 46.5731 26.675 46.6848 26.585C46.7981 26.495 46.9273 26.4283 47.0723 26.385C47.2173 26.34 47.3731 26.3175 47.5398 26.3175C47.7198 26.3175 47.8815 26.3442 48.0248 26.3975C48.1698 26.4492 48.2931 26.5217 48.3948 26.615C48.4965 26.7083 48.574 26.82 48.6273 26.95C48.6823 27.0783 48.7098 27.22 48.7098 27.375C48.7098 27.5083 48.6906 27.6317 48.6523 27.745C48.6156 27.8583 48.5648 27.9667 48.4998 28.07C48.4348 28.1717 48.359 28.2708 48.2723 28.3675C48.1873 28.4625 48.0965 28.5592 47.9998 28.6575L47.2873 29.3875C47.379 29.3592 47.4698 29.3375 47.5598 29.3225C47.6498 29.3075 47.7331 29.3 47.8098 29.3H48.4898Z" fill="black"/>
</g>
<g clip-path="url(#clip3_1567_23056)">
<path d="M50 36H57V38H50V36ZM50 40H54.375V42H50V40Z" fill="black"/>
<path d="M46.2698 35.3975C46.2965 35.2158 46.3473 35.0575 46.4223 34.9225C46.499 34.7875 46.5931 34.675 46.7048 34.585C46.8181 34.495 46.9473 34.4283 47.0923 34.385C47.2373 34.34 47.3931 34.3175 47.5598 34.3175C47.7398 34.3175 47.8998 34.3433 48.0398 34.395C48.1798 34.445 48.2981 34.5133 48.3948 34.6C48.4915 34.6867 48.5648 34.7875 48.6148 34.9025C48.6648 35.0158 48.6898 35.1358 48.6898 35.2625C48.6898 35.3775 48.6781 35.4792 48.6548 35.5675C48.6315 35.6542 48.5965 35.73 48.5498 35.795C48.5048 35.8583 48.4481 35.9125 48.3798 35.9575C48.3131 36.0008 48.2365 36.0375 48.1498 36.0675C48.5531 36.2092 48.7548 36.4842 48.7548 36.8925C48.7548 37.0858 48.7198 37.2542 48.6498 37.3975C48.5798 37.5408 48.4856 37.66 48.3673 37.755C48.2506 37.85 48.1148 37.9217 47.9598 37.97C47.8048 38.0167 47.6431 38.04 47.4748 38.04C47.3015 38.04 47.1473 38.0217 47.0123 37.985C46.8773 37.9467 46.7573 37.8883 46.6523 37.81C46.5473 37.73 46.4548 37.6283 46.3748 37.505C46.2965 37.3817 46.2281 37.235 46.1698 37.065L46.5148 36.925C46.6048 36.89 46.6881 36.8808 46.7648 36.8975C46.8415 36.9142 46.8965 36.9525 46.9298 37.0125C47.0048 37.1508 47.084 37.2517 47.1673 37.315C47.2523 37.3767 47.3515 37.4075 47.4648 37.4075C47.5515 37.4075 47.6265 37.3933 47.6898 37.365C47.7548 37.335 47.8081 37.2975 47.8498 37.2525C47.8931 37.2058 47.9256 37.1533 47.9473 37.095C47.969 37.0367 47.9798 36.9775 47.9798 36.9175C47.9798 36.8392 47.974 36.7692 47.9623 36.7075C47.9523 36.6442 47.9223 36.59 47.8723 36.545C47.8223 36.5 47.7465 36.4658 47.6448 36.4425C47.5448 36.4175 47.4048 36.405 47.2248 36.405V35.87C47.3765 35.87 47.499 35.8583 47.5923 35.835C47.6856 35.8117 47.7573 35.78 47.8073 35.74C47.859 35.6983 47.8931 35.6483 47.9098 35.59C47.9265 35.5317 47.9348 35.4675 47.9348 35.3975C47.9348 35.2542 47.8998 35.1442 47.8298 35.0675C47.7615 34.9892 47.6565 34.95 47.5148 34.95C47.3998 34.95 47.3023 34.9808 47.2223 35.0425C47.144 35.1025 47.0898 35.1775 47.0598 35.2675C47.0248 35.3592 46.979 35.42 46.9223 35.45C46.8656 35.48 46.7848 35.4867 46.6798 35.47L46.2698 35.3975Z" fill="black"/>
</g>
</g>
<defs>
<clipPath id="clip0_1567_23056">
<rect x="30.5" y="12" width="32" height="48" rx="2" fill="white"/>
</clipPath>
<clipPath id="clip1_1567_23056">
<rect width="24" height="13" fill="white" transform="translate(46 11)"/>
</clipPath>
<clipPath id="clip2_1567_23056">
<rect width="24" height="13" fill="white" transform="translate(46 19)"/>
</clipPath>
<clipPath id="clip3_1567_23056">
<rect width="24" height="13" fill="white" transform="translate(46 27)"/>
</clipPath>
</defs>
</svg>
