<svg width="72" height="72" viewBox="0 0 72 72" fill="none" xmlns="http://www.w3.org/2000/svg">
<g clip-path="url(#clip0_1567_23063)" id="BookNote">
<rect x="32.5" y="14" width="28" height="44" stroke="black" stroke-width="4"/>
<line x1="36" y1="42" x2="57" y2="42" stroke="black" stroke-width="4"/>
<line x1="36" y1="49" x2="49" y2="49" stroke="black" stroke-width="4"/>
<rect x="36" y="17.5" width="21" height="17" rx="0.5" stroke="black"/>
<path d="M38.6506 29.5H37.2906V23.672H38.6506V29.5ZM40.7124 25.8C40.7924 25.7253 40.8751 25.656 40.9604 25.592C41.0458 25.528 41.1364 25.4747 41.2324 25.432C41.3311 25.3867 41.4364 25.352 41.5484 25.328C41.6631 25.3013 41.7871 25.288 41.9204 25.288C42.1471 25.288 42.3471 25.328 42.5204 25.408C42.6964 25.4853 42.8444 25.5947 42.9644 25.736C43.0844 25.8747 43.1751 26.0413 43.2364 26.236C43.2978 26.428 43.3284 26.6373 43.3284 26.864V29.5H42.0884V26.864C42.0884 26.6613 42.0418 26.504 41.9484 26.392C41.8551 26.2773 41.7178 26.22 41.5364 26.22C41.4004 26.22 41.2724 26.2493 41.1524 26.308C41.0351 26.364 40.9204 26.4413 40.8084 26.54V29.5H39.5684V25.352H40.3364C40.4911 25.352 40.5924 25.4213 40.6404 25.56L40.7124 25.8ZM45.5603 29.564C45.3629 29.564 45.1883 29.536 45.0363 29.48C44.8869 29.4213 44.7603 29.34 44.6562 29.236C44.5549 29.1293 44.4776 29.0013 44.4243 28.852C44.3709 28.7027 44.3443 28.536 44.3443 28.352V26.208H43.9923C43.9283 26.208 43.8736 26.188 43.8283 26.148C43.7829 26.1053 43.7603 26.044 43.7603 25.964V25.48L44.4203 25.352L44.6643 24.34C44.6963 24.212 44.7869 24.148 44.9363 24.148H45.5843V25.36H46.6123V26.208H45.5843V28.268C45.5843 28.364 45.6069 28.444 45.6523 28.508C45.7003 28.5693 45.7683 28.6 45.8563 28.6C45.9016 28.6 45.9389 28.596 45.9683 28.588C46.0003 28.5773 46.0269 28.5667 46.0483 28.556C46.0723 28.5427 46.0936 28.532 46.1123 28.524C46.1336 28.5133 46.1576 28.508 46.1843 28.508C46.2216 28.508 46.2509 28.5173 46.2723 28.536C46.2963 28.552 46.3203 28.5787 46.3443 28.616L46.7203 29.204C46.5603 29.324 46.3803 29.4147 46.1803 29.476C45.9803 29.5347 45.7736 29.564 45.5603 29.564ZM48.3066 25.992C48.4346 25.768 48.5812 25.592 48.7466 25.464C48.9146 25.336 49.1066 25.272 49.3226 25.272C49.5092 25.272 49.6612 25.316 49.7786 25.404L49.6986 26.316C49.6852 26.3747 49.6626 26.4147 49.6306 26.436C49.6012 26.4573 49.5599 26.468 49.5066 26.468C49.4852 26.468 49.4572 26.4667 49.4226 26.464C49.3879 26.4613 49.3519 26.4587 49.3146 26.456C49.2772 26.4507 49.2386 26.4467 49.1986 26.444C49.1612 26.4387 49.1266 26.436 49.0946 26.436C48.9132 26.436 48.7679 26.484 48.6586 26.58C48.5519 26.676 48.4612 26.8093 48.3866 26.98V29.5H47.1466V25.352H47.8826C47.9439 25.352 47.9946 25.3573 48.0346 25.368C48.0772 25.3787 48.1119 25.396 48.1386 25.42C48.1679 25.4413 48.1892 25.4707 48.2026 25.508C48.2186 25.5453 48.2319 25.5907 48.2426 25.644L48.3066 25.992ZM52.0429 25.288C52.3576 25.288 52.6443 25.3373 52.9029 25.436C53.1616 25.5347 53.3829 25.676 53.5669 25.86C53.7536 26.044 53.8976 26.268 53.9989 26.532C54.1029 26.7933 54.1549 27.088 54.1549 27.416C54.1549 27.7467 54.1029 28.0453 53.9989 28.312C53.8976 28.576 53.7536 28.8013 53.5669 28.988C53.3829 29.172 53.1616 29.3147 52.9029 29.416C52.6443 29.5147 52.3576 29.564 52.0429 29.564C51.7256 29.564 51.4363 29.5147 51.1749 29.416C50.9163 29.3147 50.6923 29.172 50.5029 28.988C50.3163 28.8013 50.1709 28.576 50.0669 28.312C49.9656 28.0453 49.9149 27.7467 49.9149 27.416C49.9149 27.088 49.9656 26.7933 50.0669 26.532C50.1709 26.268 50.3163 26.044 50.5029 25.86C50.6923 25.676 50.9163 25.5347 51.1749 25.436C51.4363 25.3373 51.7256 25.288 52.0429 25.288ZM52.0429 28.644C52.3283 28.644 52.5376 28.544 52.6709 28.344C52.8069 28.1413 52.8749 27.8347 52.8749 27.424C52.8749 27.0133 52.8069 26.708 52.6709 26.508C52.5376 26.308 52.3283 26.208 52.0429 26.208C51.7496 26.208 51.5349 26.308 51.3989 26.508C51.2629 26.708 51.1949 27.0133 51.1949 27.424C51.1949 27.8347 51.2629 28.1413 51.3989 28.344C51.5349 28.544 51.7496 28.644 52.0429 28.644ZM54.6114 28.872C54.6114 28.776 54.6287 28.6867 54.6634 28.604C54.7007 28.5213 54.75 28.4493 54.8114 28.388C54.8754 28.3267 54.95 28.2787 55.0354 28.244C55.1207 28.2067 55.214 28.188 55.3154 28.188C55.414 28.188 55.506 28.2067 55.5914 28.244C55.6767 28.2787 55.7514 28.3267 55.8154 28.388C55.8794 28.4493 55.9287 28.5213 55.9634 28.604C56.0007 28.6867 56.0194 28.776 56.0194 28.872C56.0194 28.968 56.0007 29.0587 55.9634 29.144C55.9287 29.2267 55.8794 29.2987 55.8154 29.36C55.7514 29.4213 55.6767 29.4693 55.5914 29.504C55.506 29.5387 55.414 29.556 55.3154 29.556C55.214 29.556 55.1207 29.5387 55.0354 29.504C54.95 29.4693 54.8754 29.4213 54.8114 29.36C54.75 29.2987 54.7007 29.2267 54.6634 29.144C54.6287 29.0587 54.6114 28.968 54.6114 28.872Z" fill="black"/>
</g>
<defs>
<clipPath id="clip0_1567_23063">
<rect x="30.5" y="12" width="32" height="48" rx="2" fill="white"/>
</clipPath>
</defs>
</svg>
