<svg width="72" height="72" viewBox="0 0 72 72" fill="none" xmlns="http://www.w3.org/2000/svg">
<g clip-path="url(#clip0_1567_23059)" id="JxlSpread">
<rect x="5.5" y="14" width="28" height="44" stroke="black" stroke-width="4"/>
<line x1="9" y1="20" x2="30" y2="20" stroke="black" stroke-width="4"/>
<line x1="9" y1="27" x2="22" y2="27" stroke="black" stroke-width="4"/>
</g>
<g clip-path="url(#clip1_1567_23059)">
<rect x="38.5" y="14" width="28" height="44" stroke="black" stroke-width="4"/>
<line x1="43" y1="20" x2="51" y2="20" stroke="black" stroke-width="4"/>
<line x1="46" y1="27" x2="51" y2="27" stroke="black" stroke-width="4"/>
<line x1="54" y1="20" x2="62" y2="20" stroke="black" stroke-width="4"/>
<line x1="54" y1="27" x2="59" y2="27" stroke="black" stroke-width="4"/>
<g clip-path="url(#clip2_1567_23059)">
<path d="M46 52H62V54H46V52ZM46 56H56V58H46V56Z" fill="black"/>
<path d="M44.6773 53.44V54H42.6023V53.44H43.3023V51.6025C43.3023 51.5558 43.3031 51.5092 43.3048 51.4625C43.3065 51.4142 43.309 51.3658 43.3123 51.3175L42.8973 51.6625C42.8606 51.6908 42.824 51.7083 42.7873 51.715C42.7523 51.72 42.719 51.72 42.6873 51.715C42.6556 51.7083 42.6273 51.6975 42.6023 51.6825C42.5773 51.6658 42.559 51.6492 42.5473 51.6325L42.3023 51.3075L43.4373 50.355H44.0773V53.44H44.6773Z" fill="black"/>
</g>
<g clip-path="url(#clip3_1567_23059)">
<path d="M46.0388 39.836C46.1215 39.9507 46.2121 40.032 46.3108 40.08C46.4095 40.1253 46.5255 40.148 46.6588 40.148C46.8215 40.148 46.9601 40.1213 47.0748 40.068C47.1895 40.012 47.2828 39.9387 47.3548 39.848C47.4268 39.7547 47.4788 39.6467 47.5108 39.524C47.5428 39.4013 47.5588 39.2707 47.5588 39.132C47.5588 38.9427 47.5321 38.7933 47.4788 38.684C47.4255 38.5747 47.3588 38.492 47.2788 38.436C47.1988 38.38 47.1095 38.344 47.0108 38.328C46.9148 38.312 46.8228 38.304 46.7348 38.304H46.4828V37.368H46.5828C46.7108 37.368 46.8201 37.3573 46.9108 37.336C47.0015 37.3147 47.0748 37.2787 47.1308 37.228C47.1895 37.1773 47.2308 37.1107 47.2548 37.028C47.2815 36.9453 47.2948 36.8413 47.2948 36.716C47.2948 36.4467 47.2401 36.256 47.1308 36.144C47.0215 36.032 46.8775 35.976 46.6988 35.976C46.5761 35.976 46.4721 36 46.3868 36.048C46.3041 36.0933 46.2361 36.1693 46.1828 36.276C46.1321 36.38 46.0948 36.5173 46.0708 36.688C46.0495 36.856 46.0388 37.0613 46.0388 37.304V39.836ZM44.7988 37.264C44.7988 36.9413 44.8361 36.648 44.9108 36.384C44.9881 36.12 45.1055 35.8947 45.2628 35.708C45.4201 35.5187 45.6188 35.372 45.8588 35.268C46.1015 35.164 46.3895 35.112 46.7228 35.112C47.0375 35.112 47.3055 35.156 47.5268 35.244C47.7481 35.332 47.9281 35.4467 48.0668 35.588C48.2055 35.7293 48.3055 35.8893 48.3668 36.068C48.4308 36.2467 48.4628 36.4253 48.4628 36.604C48.4628 36.8707 48.4015 37.1107 48.2788 37.324C48.1588 37.5373 47.9735 37.6987 47.7228 37.808C48.0748 37.92 48.3441 38.1053 48.5308 38.364C48.7201 38.62 48.8148 38.9227 48.8148 39.272C48.8148 39.5067 48.7708 39.732 48.6828 39.948C48.5948 40.164 48.4708 40.3547 48.3108 40.52C48.1508 40.6853 47.9575 40.8173 47.7308 40.916C47.5041 41.0147 47.2521 41.064 46.9748 41.064C46.5961 41.064 46.2841 40.9587 46.0388 40.748V42.324H44.7988V37.264Z" fill="black"/>
<path d="M57.66 39.872C57.7533 39.9733 57.8547 40.0453 57.964 40.088C58.0733 40.1307 58.184 40.152 58.296 40.152C58.4133 40.152 58.5213 40.1307 58.62 40.088C58.7187 40.0427 58.8027 39.9707 58.872 39.872C58.944 39.7707 59 39.6387 59.04 39.476C59.08 39.3107 59.1 39.108 59.1 38.868C59.1 38.66 59.084 38.484 59.052 38.34C59.0227 38.1933 58.9773 38.0747 58.916 37.984C58.8573 37.8907 58.7827 37.824 58.692 37.784C58.604 37.7413 58.5027 37.72 58.388 37.72C58.236 37.72 58.104 37.7533 57.992 37.82C57.88 37.8867 57.7693 37.984 57.66 38.112V39.872ZM57.66 37.292C57.82 37.14 57.9947 37.0187 58.184 36.928C58.376 36.8347 58.5893 36.788 58.824 36.788C59.0587 36.788 59.272 36.836 59.464 36.932C59.656 37.028 59.82 37.1653 59.956 37.344C60.092 37.52 60.196 37.7333 60.268 37.984C60.3427 38.2347 60.38 38.5147 60.38 38.824C60.38 39.16 60.3373 39.4653 60.252 39.74C60.1667 40.0147 60.0453 40.2507 59.888 40.448C59.7333 40.6427 59.548 40.7947 59.332 40.904C59.116 41.0107 58.8773 41.064 58.616 41.064C58.4907 41.064 58.3787 41.052 58.28 41.028C58.1813 41.004 58.0907 40.9707 58.008 40.928C57.9253 40.8827 57.8493 40.8293 57.78 40.768C57.7133 40.7067 57.648 40.64 57.584 40.568L57.54 40.776C57.5187 40.8613 57.484 40.92 57.436 40.952C57.388 40.984 57.324 41 57.244 41H56.42V35.012H57.66V37.292Z" fill="black"/>
</g>
</g>
<defs>
<clipPath id="clip0_1567_23059">
<rect x="3.5" y="12" width="32" height="48" rx="2" fill="white"/>
</clipPath>
<clipPath id="clip1_1567_23059">
<rect x="36.5" y="12" width="32" height="48" rx="2" fill="white"/>
</clipPath>
<clipPath id="clip2_1567_23059">
<rect width="24" height="13" fill="white" transform="translate(42 43)"/>
</clipPath>
<clipPath id="clip3_1567_23059">
<rect x="41" y="33" width="23" height="9" rx="1" fill="white"/>
</clipPath>
</defs>
</svg>
