<svg width="72" height="72" viewBox="0 0 72 72" fill="none" xmlns="http://www.w3.org/2000/svg">
<g clip-path="url(#clip0_1567_23060)" id="JxlSimple">
<rect x="32.5" y="14" width="28" height="44" stroke="black" stroke-width="4"/>
<line x1="37" y1="20" x2="45" y2="20" stroke="black" stroke-width="4"/>
<line x1="40" y1="27" x2="45" y2="27" stroke="black" stroke-width="4"/>
<line x1="48" y1="20" x2="56" y2="20" stroke="black" stroke-width="4"/>
<line x1="48" y1="27" x2="53" y2="27" stroke="black" stroke-width="4"/>
<g clip-path="url(#clip1_1567_23060)">
<path d="M40.0388 39.836C40.1215 39.9507 40.2121 40.032 40.3108 40.08C40.4095 40.1253 40.5255 40.148 40.6588 40.148C40.8215 40.148 40.9601 40.1213 41.0748 40.068C41.1895 40.012 41.2828 39.9387 41.3548 39.848C41.4268 39.7547 41.4788 39.6467 41.5108 39.524C41.5428 39.4013 41.5588 39.2707 41.5588 39.132C41.5588 38.9427 41.5321 38.7933 41.4788 38.684C41.4255 38.5747 41.3588 38.492 41.2788 38.436C41.1988 38.38 41.1095 38.344 41.0108 38.328C40.9148 38.312 40.8228 38.304 40.7348 38.304H40.4828V37.368H40.5828C40.7108 37.368 40.8201 37.3573 40.9108 37.336C41.0015 37.3147 41.0748 37.2787 41.1308 37.228C41.1895 37.1773 41.2308 37.1107 41.2548 37.028C41.2815 36.9453 41.2948 36.8413 41.2948 36.716C41.2948 36.4467 41.2401 36.256 41.1308 36.144C41.0215 36.032 40.8775 35.976 40.6988 35.976C40.5761 35.976 40.4721 36 40.3868 36.048C40.3041 36.0933 40.2361 36.1693 40.1828 36.276C40.1321 36.38 40.0948 36.5173 40.0708 36.688C40.0495 36.856 40.0388 37.0613 40.0388 37.304V39.836ZM38.7988 37.264C38.7988 36.9413 38.8361 36.648 38.9108 36.384C38.9881 36.12 39.1055 35.8947 39.2628 35.708C39.4201 35.5187 39.6188 35.372 39.8588 35.268C40.1015 35.164 40.3895 35.112 40.7228 35.112C41.0375 35.112 41.3055 35.156 41.5268 35.244C41.7481 35.332 41.9281 35.4467 42.0668 35.588C42.2055 35.7293 42.3055 35.8893 42.3668 36.068C42.4308 36.2467 42.4628 36.4253 42.4628 36.604C42.4628 36.8707 42.4015 37.1107 42.2788 37.324C42.1588 37.5373 41.9735 37.6987 41.7228 37.808C42.0748 37.92 42.3441 38.1053 42.5308 38.364C42.7201 38.62 42.8148 38.9227 42.8148 39.272C42.8148 39.5067 42.7708 39.732 42.6828 39.948C42.5948 40.164 42.4708 40.3547 42.3108 40.52C42.1508 40.6853 41.9575 40.8173 41.7308 40.916C41.5041 41.0147 41.2521 41.064 40.9748 41.064C40.5961 41.064 40.2841 40.9587 40.0388 40.748V42.324H38.7988V37.264Z" fill="black"/>
<path d="M51.66 39.872C51.7533 39.9733 51.8547 40.0453 51.964 40.088C52.0733 40.1307 52.184 40.152 52.296 40.152C52.4133 40.152 52.5213 40.1307 52.62 40.088C52.7187 40.0427 52.8027 39.9707 52.872 39.872C52.944 39.7707 53 39.6387 53.04 39.476C53.08 39.3107 53.1 39.108 53.1 38.868C53.1 38.66 53.084 38.484 53.052 38.34C53.0227 38.1933 52.9773 38.0747 52.916 37.984C52.8573 37.8907 52.7827 37.824 52.692 37.784C52.604 37.7413 52.5027 37.72 52.388 37.72C52.236 37.72 52.104 37.7533 51.992 37.82C51.88 37.8867 51.7693 37.984 51.66 38.112V39.872ZM51.66 37.292C51.82 37.14 51.9947 37.0187 52.184 36.928C52.376 36.8347 52.5893 36.788 52.824 36.788C53.0587 36.788 53.272 36.836 53.464 36.932C53.656 37.028 53.82 37.1653 53.956 37.344C54.092 37.52 54.196 37.7333 54.268 37.984C54.3427 38.2347 54.38 38.5147 54.38 38.824C54.38 39.16 54.3373 39.4653 54.252 39.74C54.1667 40.0147 54.0453 40.2507 53.888 40.448C53.7333 40.6427 53.548 40.7947 53.332 40.904C53.116 41.0107 52.8773 41.064 52.616 41.064C52.4907 41.064 52.3787 41.052 52.28 41.028C52.1813 41.004 52.0907 40.9707 52.008 40.928C51.9253 40.8827 51.8493 40.8293 51.78 40.768C51.7133 40.7067 51.648 40.64 51.584 40.568L51.54 40.776C51.5187 40.8613 51.484 40.92 51.436 40.952C51.388 40.984 51.324 41 51.244 41H50.42V35.012H51.66V37.292Z" fill="black"/>
</g>
</g>
<defs>
<clipPath id="clip0_1567_23060">
<rect x="30.5" y="12" width="32" height="48" rx="2" fill="white"/>
</clipPath>
<clipPath id="clip1_1567_23060">
<rect x="35" y="33" width="23" height="9" rx="1" fill="white"/>
</clipPath>
</defs>
</svg>
