<svg width="72" height="72" viewBox="0 0 72 72" fill="none" xmlns="http://www.w3.org/2000/svg">
<g clip-path="url(#clip0_1567_23064)" id="Markdown">
<rect x="32.5" y="14" width="28" height="44" stroke="black" stroke-width="4"/>
<line x1="36" y1="20" x2="57" y2="20" stroke="black" stroke-width="4"/>
<line x1="36" y1="27" x2="49" y2="27" stroke="black" stroke-width="4"/>
<mask id="mask0_1567_23064" style="mask-type:alpha" maskUnits="userSpaceOnUse" x="34" y="30" width="25" height="25">
<rect x="34.5" y="30.5" width="24" height="24" fill="#D9D9D9"/>
</mask>
<g mask="url(#mask0_1567_23064)">
<path d="M50.5 45.5L53.5 42.5L52.45 41.425L51.25 42.625V39.5H49.75V42.625L48.55 41.425L47.5 42.5L50.5 45.5ZM38.5 50.5C37.95 50.5 37.4792 50.3042 37.0875 49.9125C36.6958 49.5208 36.5 49.05 36.5 48.5V36.5C36.5 35.95 36.6958 35.4792 37.0875 35.0875C37.4792 34.6958 37.95 34.5 38.5 34.5H54.5C55.05 34.5 55.5208 34.6958 55.9125 35.0875C56.3042 35.4792 56.5 35.95 56.5 36.5V48.5C56.5 49.05 56.3042 49.5208 55.9125 49.9125C55.5208 50.3042 55.05 50.5 54.5 50.5H38.5ZM38.5 48.5H54.5V36.5H38.5V48.5ZM40 45.5H41.5V41H42.5V44H44V41H45V45.5H46.5V40.5C46.5 40.2167 46.4042 39.9792 46.2125 39.7875C46.0208 39.5958 45.7833 39.5 45.5 39.5H41C40.7167 39.5 40.4792 39.5958 40.2875 39.7875C40.0958 39.9792 40 40.2167 40 40.5V45.5Z" fill="#1C1B1F"/>
</g>
</g>
<defs>
<clipPath id="clip0_1567_23064">
<rect x="30.5" y="12" width="32" height="48" rx="2" fill="white"/>
</clipPath>
</defs>
</svg>
