<svg width="72" height="72" viewBox="0 0 72 72" fill="none" xmlns="http://www.w3.org/2000/svg">
<g clip-path="url(#clip0_1599_28600)">
<rect x="32.5" y="14" width="28" height="44" stroke="black" stroke-width="4"/>
<g clip-path="url(#clip1_1599_28600)">
<path d="M40 20H56V22H40V20ZM40 24H50V26H40V24Z" fill="black"/>
<path d="M38.6773 21.44V22H36.6023V21.44H37.3023V19.6025C37.3023 19.5558 37.3031 19.5092 37.3048 19.4625C37.3065 19.4142 37.309 19.3658 37.3123 19.3175L36.8973 19.6625C36.8606 19.6908 36.824 19.7083 36.7873 19.715C36.7523 19.72 36.719 19.72 36.6873 19.715C36.6556 19.7083 36.6273 19.6975 36.6023 19.6825C36.5773 19.6658 36.559 19.6492 36.5473 19.6325L36.3023 19.3075L37.4373 18.355H38.0773V21.44H38.6773Z" fill="black"/>
</g>
<g clip-path="url(#clip2_1599_28600)">
<path d="M40 28H56V30H40V28ZM40 32H50V34H40V32Z" fill="black"/>
<path d="M38.4898 29.3C38.5731 29.3 38.639 29.3233 38.6873 29.37C38.7356 29.415 38.7598 29.475 38.7598 29.55V30H36.1998V29.75C36.1998 29.7017 36.2098 29.65 36.2298 29.595C36.2498 29.54 36.2848 29.49 36.3348 29.445L37.3848 28.3875C37.4748 28.2975 37.5531 28.2117 37.6198 28.13C37.6865 28.0483 37.7415 27.9683 37.7848 27.89C37.8281 27.81 37.8606 27.7308 37.8823 27.6525C37.904 27.5725 37.9148 27.4883 37.9148 27.4C37.9148 27.255 37.8798 27.1442 37.8098 27.0675C37.7415 26.9892 37.6365 26.95 37.4948 26.95C37.3798 26.95 37.2823 26.9808 37.2023 27.0425C37.124 27.1025 37.0698 27.1775 37.0398 27.2675C37.0048 27.3592 36.959 27.42 36.9023 27.45C36.8456 27.48 36.7648 27.4867 36.6598 27.47L36.2498 27.3975C36.2765 27.2158 36.3273 27.0575 36.4023 26.9225C36.479 26.7875 36.5731 26.675 36.6848 26.585C36.7981 26.495 36.9273 26.4283 37.0723 26.385C37.2173 26.34 37.3731 26.3175 37.5398 26.3175C37.7198 26.3175 37.8815 26.3442 38.0248 26.3975C38.1698 26.4492 38.2931 26.5217 38.3948 26.615C38.4965 26.7083 38.574 26.82 38.6273 26.95C38.6823 27.0783 38.7098 27.22 38.7098 27.375C38.7098 27.5083 38.6906 27.6317 38.6523 27.745C38.6156 27.8583 38.5648 27.9667 38.4998 28.07C38.4348 28.1717 38.359 28.2708 38.2723 28.3675C38.1873 28.4625 38.0965 28.5592 37.9998 28.6575L37.2873 29.3875C37.379 29.3592 37.4698 29.3375 37.5598 29.3225C37.6498 29.3075 37.7331 29.3 37.8098 29.3H38.4898Z" fill="black"/>
</g>
<g clip-path="url(#clip3_1599_28600)">
<path d="M40 36H56V38H40V36ZM40 40H50V42H40V40Z" fill="black"/>
<path d="M36.2698 35.3975C36.2965 35.2158 36.3473 35.0575 36.4223 34.9225C36.499 34.7875 36.5931 34.675 36.7048 34.585C36.8181 34.495 36.9473 34.4283 37.0923 34.385C37.2373 34.34 37.3931 34.3175 37.5598 34.3175C37.7398 34.3175 37.8998 34.3433 38.0398 34.395C38.1798 34.445 38.2981 34.5133 38.3948 34.6C38.4915 34.6867 38.5648 34.7875 38.6148 34.9025C38.6648 35.0158 38.6898 35.1358 38.6898 35.2625C38.6898 35.3775 38.6781 35.4792 38.6548 35.5675C38.6315 35.6542 38.5965 35.73 38.5498 35.795C38.5048 35.8583 38.4481 35.9125 38.3798 35.9575C38.3131 36.0008 38.2365 36.0375 38.1498 36.0675C38.5531 36.2092 38.7548 36.4842 38.7548 36.8925C38.7548 37.0858 38.7198 37.2542 38.6498 37.3975C38.5798 37.5408 38.4856 37.66 38.3673 37.755C38.2506 37.85 38.1148 37.9217 37.9598 37.97C37.8048 38.0167 37.6431 38.04 37.4748 38.04C37.3015 38.04 37.1473 38.0217 37.0123 37.985C36.8773 37.9467 36.7573 37.8883 36.6523 37.81C36.5473 37.73 36.4548 37.6283 36.3748 37.505C36.2965 37.3817 36.2281 37.235 36.1698 37.065L36.5148 36.925C36.6048 36.89 36.6881 36.8808 36.7648 36.8975C36.8415 36.9142 36.8965 36.9525 36.9298 37.0125C37.0048 37.1508 37.084 37.2517 37.1673 37.315C37.2523 37.3767 37.3515 37.4075 37.4648 37.4075C37.5515 37.4075 37.6265 37.3933 37.6898 37.365C37.7548 37.335 37.8081 37.2975 37.8498 37.2525C37.8931 37.2058 37.9256 37.1533 37.9473 37.095C37.969 37.0367 37.9798 36.9775 37.9798 36.9175C37.9798 36.8392 37.974 36.7692 37.9623 36.7075C37.9523 36.6442 37.9223 36.59 37.8723 36.545C37.8223 36.5 37.7465 36.4658 37.6448 36.4425C37.5448 36.4175 37.4048 36.405 37.2248 36.405V35.87C37.3765 35.87 37.499 35.8583 37.5923 35.835C37.6856 35.8117 37.7573 35.78 37.8073 35.74C37.859 35.6983 37.8931 35.6483 37.9098 35.59C37.9265 35.5317 37.9348 35.4675 37.9348 35.3975C37.9348 35.2542 37.8998 35.1442 37.8298 35.0675C37.7615 34.9892 37.6565 34.95 37.5148 34.95C37.3998 34.95 37.3023 34.9808 37.2223 35.0425C37.144 35.1025 37.0898 35.1775 37.0598 35.2675C37.0248 35.3592 36.979 35.42 36.9223 35.45C36.8656 35.48 36.7848 35.4867 36.6798 35.47L36.2698 35.3975Z" fill="black"/>
</g>
</g>
<defs>
<clipPath id="clip0_1599_28600">
<rect x="30.5" y="12" width="32" height="48" rx="2" fill="white"/>
</clipPath>
<clipPath id="clip1_1599_28600">
<rect width="24" height="13" fill="white" transform="translate(36 11)"/>
</clipPath>
<clipPath id="clip2_1599_28600">
<rect width="24" height="13" fill="white" transform="translate(36 19)"/>
</clipPath>
<clipPath id="clip3_1599_28600">
<rect width="24" height="13" fill="white" transform="translate(36 27)"/>
</clipPath>
</defs>
</svg>
