<svg width="72" height="72" viewBox="0 0 72 72" fill="none" xmlns="http://www.w3.org/2000/svg">
<g clip-path="url(#clip0_1567_23065)" id="ParaBible">
<rect x="32.5" y="14" width="28" height="44" stroke="black" stroke-width="4"/>
<g clip-path="url(#clip1_1567_23065)">
<path d="M40.252 19.244H38.612V24H37.26V19.244H35.62V18.172H40.252V19.244ZM42.0161 19.852V24H40.7761V19.852H42.0161ZM42.1441 18.716C42.1441 18.8147 42.1241 18.908 42.0841 18.996C42.0441 19.0813 41.9895 19.1573 41.9201 19.224C41.8508 19.288 41.7695 19.34 41.6761 19.38C41.5855 19.4173 41.4881 19.436 41.3841 19.436C41.2828 19.436 41.1881 19.4173 41.1001 19.38C41.0121 19.34 40.9335 19.288 40.8641 19.224C40.7975 19.1573 40.7441 19.0813 40.7041 18.996C40.6668 18.908 40.6481 18.8147 40.6481 18.716C40.6481 18.6147 40.6668 18.52 40.7041 18.432C40.7441 18.344 40.7975 18.2667 40.8641 18.2C40.9335 18.1333 41.0121 18.0813 41.1001 18.044C41.1881 18.0067 41.2828 17.988 41.3841 17.988C41.4881 17.988 41.5855 18.0067 41.6761 18.044C41.7695 18.0813 41.8508 18.1333 41.9201 18.2C41.9895 18.2667 42.0441 18.344 42.0841 18.432C42.1241 18.52 42.1441 18.6147 42.1441 18.716ZM44.3649 24.064C44.1676 24.064 43.9929 24.036 43.8409 23.98C43.6916 23.9213 43.5649 23.84 43.4609 23.736C43.3596 23.6293 43.2823 23.5013 43.2289 23.352C43.1756 23.2027 43.1489 23.036 43.1489 22.852V20.708H42.7969C42.7329 20.708 42.6783 20.688 42.6329 20.648C42.5876 20.6053 42.5649 20.544 42.5649 20.464V19.98L43.2249 19.852L43.4689 18.84C43.5009 18.712 43.5916 18.648 43.7409 18.648H44.3889V19.86H45.4169V20.708H44.3889V22.768C44.3889 22.864 44.4116 22.944 44.4569 23.008C44.5049 23.0693 44.5729 23.1 44.6609 23.1C44.7063 23.1 44.7436 23.096 44.7729 23.088C44.8049 23.0773 44.8316 23.0667 44.8529 23.056C44.8769 23.0427 44.8983 23.032 44.9169 23.024C44.9383 23.0133 44.9623 23.008 44.9889 23.008C45.0263 23.008 45.0556 23.0173 45.0769 23.036C45.1009 23.052 45.1249 23.0787 45.1489 23.116L45.5249 23.704C45.3649 23.824 45.1849 23.9147 44.9849 23.976C44.7849 24.0347 44.5783 24.064 44.3649 24.064ZM47.1913 18.012V24H45.9513V18.012H47.1913ZM50.6094 21.428C50.6094 21.3293 50.596 21.2333 50.5694 21.14C50.5454 21.0467 50.504 20.964 50.4454 20.892C50.3894 20.8173 50.3147 20.7573 50.2214 20.712C50.128 20.6667 50.0147 20.644 49.8814 20.644C49.6467 20.644 49.4627 20.712 49.3294 20.848C49.196 20.9813 49.108 21.1747 49.0654 21.428H50.6094ZM49.0494 22.148C49.0894 22.4947 49.1947 22.7467 49.3654 22.904C49.536 23.0587 49.756 23.136 50.0254 23.136C50.1694 23.136 50.2934 23.1187 50.3974 23.084C50.5014 23.0493 50.5934 23.0107 50.6734 22.968C50.756 22.9253 50.8307 22.8867 50.8974 22.852C50.9667 22.8173 51.0387 22.8 51.1134 22.8C51.212 22.8 51.2867 22.836 51.3374 22.908L51.6974 23.352C51.5694 23.4987 51.4307 23.6187 51.2814 23.712C51.1347 23.8027 50.9827 23.8747 50.8254 23.928C50.6707 23.9787 50.5147 24.0133 50.3574 24.032C50.2027 24.0533 50.0547 24.064 49.9134 24.064C49.6227 24.064 49.3494 24.0173 49.0934 23.924C48.84 23.828 48.6174 23.6867 48.4254 23.5C48.236 23.3133 48.0854 23.0813 47.9734 22.804C47.864 22.5267 47.8094 22.204 47.8094 21.836C47.8094 21.5587 47.856 21.296 47.9494 21.048C48.0454 20.8 48.1814 20.5827 48.3574 20.396C48.536 20.2093 48.7507 20.0613 49.0014 19.952C49.2547 19.8427 49.54 19.788 49.8574 19.788C50.132 19.788 50.3827 19.8307 50.6094 19.916C50.8387 20.0013 51.0347 20.1253 51.1974 20.288C51.3627 20.4507 51.4907 20.6507 51.5814 20.888C51.6747 21.1227 51.7214 21.3893 51.7214 21.688C51.7214 21.7813 51.7174 21.8573 51.7094 21.916C51.7014 21.9747 51.6867 22.0213 51.6654 22.056C51.644 22.0907 51.6147 22.1147 51.5774 22.128C51.5427 22.1413 51.4974 22.148 51.4414 22.148H49.0494Z" fill="black"/>
</g>
<g clip-path="url(#clip2_1567_23065)">
<path d="M41.204 36.104V37H37.884V36.104H39.004V33.164C39.004 33.0893 39.0053 33.0147 39.008 32.94C39.0107 32.8627 39.0147 32.7853 39.02 32.708L38.356 33.26C38.2973 33.3053 38.2387 33.3333 38.18 33.344C38.124 33.352 38.0707 33.352 38.02 33.344C37.9693 33.3333 37.924 33.316 37.884 33.292C37.844 33.2653 37.8147 33.2387 37.796 33.212L37.404 32.692L39.22 31.168H40.244V36.104H41.204Z" fill="black"/>
</g>
<line x1="44" y1="31" x2="57" y2="31" stroke="black" stroke-width="4"/>
<line x1="44" y1="38" x2="57" y2="38" stroke="black" stroke-width="4"/>
<line x1="36" y1="45" x2="49" y2="45" stroke="black" stroke-width="4"/>
</g>
<defs>
<clipPath id="clip0_1567_23065">
<rect x="30.5" y="12" width="32" height="48" rx="2" fill="white"/>
</clipPath>
<clipPath id="clip1_1567_23065">
<rect x="35.5" y="16" width="22" height="10" rx="1" fill="white"/>
</clipPath>
<clipPath id="clip2_1567_23065">
<rect width="5" height="9" fill="white" transform="translate(37 29)"/>
</clipPath>
</defs>
</svg>
